<svg width="110" height="32" viewBox="0 0 110 32" fill="none" xmlns="http://www.w3.org/2000/svg">
<path d="M38.841 27.0058L38.898 27.1094H39.0162H39.1754H39.2961L39.3523 27.0026L46.5161 13.4089L46.6707 13.1157H46.3392H42.7729H42.6426L42.59 13.235L39.199 20.9241L35.5032 13.2291L35.4487 13.1157H35.3229H31.5339H31.1955L31.3587 13.4121L38.841 27.0058Z" fill="#202123" stroke="#202123" stroke-width="0.4"/>
<path d="M50.7653 13.5191L50.7652 13.5192C49.6096 14.1476 48.7027 15.0099 48.0469 16.1056C47.3901 17.2028 47.0632 18.4351 47.0632 19.7963C47.0632 21.2608 47.3944 22.5466 48.0638 23.6464C48.7298 24.7431 49.6387 25.5849 50.7859 26.1709C51.9318 26.7562 53.2212 27.0463 54.6497 27.0463C56.1638 27.0463 57.489 26.7293 58.6172 26.0876C59.7404 25.4488 60.6205 24.5808 61.255 23.4845L61.255 23.4845C61.8894 22.3876 62.205 21.1563 62.205 19.7963C62.205 18.4368 61.8941 17.2069 61.271 16.1095L61.2709 16.1093C60.6469 15.0129 59.7714 14.1496 58.6473 13.5204L58.6472 13.5203C57.5195 12.8898 56.185 12.5783 54.7133 12.5783C53.2405 12.5783 51.9234 12.8902 50.7653 13.5191ZM51.228 21.9621L51.2279 21.9619C50.8981 21.3557 50.7256 20.679 50.7119 19.9263V19.8283C50.7119 19.0584 50.8844 18.3539 51.2294 17.7095L51.2294 17.7094C51.5747 17.0637 52.0395 16.5522 52.6263 16.1708C53.2071 15.7937 53.8691 15.6027 54.6184 15.6027C55.7744 15.6027 56.7115 16.0083 57.4471 16.8178C58.1856 17.6315 58.5572 18.6312 58.5572 19.8292C58.5572 21.0271 58.1856 22.021 57.448 22.8236L57.4479 22.8237C56.7136 23.6235 55.7763 24.0236 54.6184 24.0236C53.8897 24.0236 53.2315 23.838 52.6382 23.4686C52.0422 23.0974 51.5723 22.5967 51.228 21.9621Z" fill="#202123" stroke="#202123" stroke-width="0.4"/>
<path d="M68.0708 21.9619L68.0709 21.9621C68.4152 22.5967 68.8851 23.0974 69.4811 23.4686C70.0744 23.838 70.7326 24.0236 71.4604 24.0236C72.6183 24.0236 73.5556 23.6235 74.2899 22.8237L74.29 22.8236C75.0276 22.021 75.3991 21.0271 75.3991 19.8292C75.3991 18.6312 75.0276 17.6315 74.2892 16.8179L68.0708 21.9619ZM68.0708 21.9619C67.7268 21.3295 67.5539 20.6204 67.5539 19.8283C67.5539 19.0584 67.7263 18.3539 68.0714 17.7095L68.0714 17.7094M68.0708 21.9619L68.0714 17.7094M68.0714 17.7094C68.4167 17.0637 68.8815 16.5522 69.4682 16.1708C70.049 15.7937 70.7111 15.6027 71.4604 15.6027C72.6164 15.6027 73.5535 16.0083 74.2891 16.8178L68.0714 17.7094ZM67.6082 13.5191L67.6081 13.5192C66.4525 14.1476 65.5456 15.0099 64.8898 16.1056C64.233 17.2028 63.9061 18.4351 63.9061 19.7963C63.9061 21.2608 64.2372 22.5466 64.9066 23.6464C65.5727 24.7431 66.4815 25.5849 67.6288 26.1709C68.7747 26.7562 70.0641 27.0463 71.4926 27.0463C73.0067 27.0463 74.3318 26.7293 75.4601 26.0876C76.5833 25.4488 77.4634 24.5808 78.0979 23.4845L78.0979 23.4845C78.7323 22.3876 79.0479 21.1563 79.0479 19.7963C79.0479 18.4368 78.737 17.2069 78.1139 16.1095L78.1138 16.1093C77.4898 15.0129 76.6143 14.1496 75.4902 13.5204L75.4901 13.5203C74.3623 12.8898 73.0279 12.5783 71.5561 12.5783C70.0834 12.5783 68.7663 12.8902 67.6082 13.5191Z" fill="#202123" stroke="#202123" stroke-width="0.4"/>
<path d="M82.0957 1.76545H81.8957V1.96545V26.5302V26.7302H82.0957H85.3114H85.5114V26.5302V1.96545V1.76545H85.3114H82.0957Z" fill="#202123" stroke="#202123" stroke-width="0.4"/>
<path d="M90.9787 7.32954H90.7787V7.52954V13.1468H88.6227H88.4227V13.3468V15.8442V16.0442H88.6227H90.7787V26.5302V26.7302H90.9787H94.2266H94.4266V26.5302V16.0442H97.7928H97.9928V15.8442V13.3468V13.1468H97.7928H94.4266V7.52954V7.32954H94.2266H90.9787Z" fill="#202123" stroke="#202123" stroke-width="0.4"/>
<path d="M101.82 24.9124C102.089 23.7788 101.382 22.6452 100.243 22.3783C99.1045 22.1115 97.9614 22.8115 97.6919 23.9451C97.4225 25.0787 98.1297 26.2123 99.2684 26.4791C100.407 26.746 101.55 26.046 101.82 24.9124Z" fill="#FCC72C" stroke="#FCC72C" stroke-width="0.4"/>
<path d="M19.8071 0.784535L19.972 0.4875H19.6323H16.8746H16.7569L16.6997 0.590448L15.5547 2.65365H0.9566H0.608953L0.783704 2.95418L12.7151 23.4735L12.8865 23.7683L13.0601 23.4748L21.6121 9.01248L21.7906 8.71068H21.44H15.4093L19.8071 0.784535ZM10.9827 11.5086H16.8702L12.9064 18.2119L5.48767 5.45159H14.0036L10.8078 11.2116L10.643 11.5086H10.9827Z" fill="#FCC72C" stroke="#FCC72C" stroke-width="0.4"/>
<path d="M14.1274 25.689L14.069 25.7895L14.1275 25.8901L15.5219 28.288L15.6948 28.5853L15.8677 28.288L30.5988 2.95417L30.7735 2.65364H30.4259H20.533H20.4151L20.358 2.75688L19.0324 5.15482L18.8683 5.45158H19.2074H25.8948L14.1274 25.689Z" fill="#202123" stroke="#202123" stroke-width="0.4"/>
</svg>
